<svg width="70" height="70" fill="none" xmlns="http://www.w3.org/2000/svg"><path d="M24.111 27.278h-7.778a1.167 1.167 0 0 1 0-2.334h7.778a1.167 1.167 0 0 1 0 2.334ZM45.889 27.278h7.778a1.167 1.167 0 0 0 0-2.334h-7.778a1.167 1.167 0 0 0 0 2.334ZM38.889 27.278H31.11a1.167 1.167 0 0 1 0-2.334h7.778a1.167 1.167 0 0 1 0 2.334Z" fill="#0C8543"/><path fill-rule="evenodd" clip-rule="evenodd" d="M3.111 9H66.89A3.12 3.12 0 0 1 70 12.111v5.445a3.12 3.12 0 0 1-3.111 3.11h-.778V58A3.12 3.12 0 0 1 63 61.111H7A3.12 3.12 0 0 1 3.889 58V20.667H3.11A3.12 3.12 0 0 1 0 17.556V12.11A3.12 3.12 0 0 1 3.111 9Zm44.722 30.722v-3.889H22.167v3.89h25.666Zm0 2.334H22.167v3.888h25.666v-3.888Zm0 6.222H22.167v8.944h25.666v-8.944Zm13.35-2.357 1.04 1.038V20.667H7.777v36.555h12.055V35.833h-3.5a1.167 1.167 0 0 1 0-2.333h37.334a1.167 1.167 0 0 1 0 2.333h-3.5v21.39h4.47l-1.176-1.177a.583.583 0 1 1 .825-.825l2 2.001h3.75l-3.859-3.86a.583.583 0 1 1 .826-.825l4.684 4.685h.535v-3.214l-4.713-4.712a.583.583 0 1 1 .825-.825l3.888 3.887v-3.749l-1.863-1.863a.583.583 0 1 1 .825-.825ZM3.89 16.778H66.11v-3.89H3.89v3.89Z" fill="#0C8543"/></svg>