<svg viewBox="0 0 168 56" fill="none" xmlns="http://www.w3.org/2000/svg"><path d="M51.8 0h110.6a5.6 5.6 0 0 1 5.6 5.6v44.8a5.6 5.6 0 0 1-5.6 5.6H51.8V0Z" fill="#0C8543"/><path d="M70.494 28a7.352 7.352 0 0 1 5.067 1.65 5.509 5.509 0 0 1 1.856 4.322 5.46 5.46 0 0 1-1.85 4.317 7.407 7.407 0 0 1-5.073 1.63h-3.153v4.149l2.004.385V46.7H61.6v-2.247l1.99-.385V30.646l-1.99-.38v-2.26h8.894V28Zm-3.153 9.029h3.153a3.1 3.1 0 0 0 2.38-.854 3.052 3.052 0 0 0 .798-2.177 3.179 3.179 0 0 0-.798-2.228 3.049 3.049 0 0 0-2.38-.88h-3.153v6.139Zm20.074 9.67a6.787 6.787 0 0 1-.27-.712 5.613 5.613 0 0 1-.18-.738 5.159 5.159 0 0 1-1.624 1.246 4.86 4.86 0 0 1-2.19.475 4.587 4.587 0 0 1-3.242-1.112 3.92 3.92 0 0 1-1.201-3.024 3.439 3.439 0 0 1 1.567-3.018 8.185 8.185 0 0 1 4.597-1.065h1.914V37.39a2.047 2.047 0 0 0-.578-1.554 2.38 2.38 0 0 0-1.708-.552 4.048 4.048 0 0 0-1.143.147 2.99 2.99 0 0 0-.809.353l-.245 1.483h-2.825l.013-3.08c.733-.487 1.525-.88 2.356-1.17a8.541 8.541 0 0 1 2.896-.474 6.594 6.594 0 0 1 4.2 1.26 4.312 4.312 0 0 1 1.612 3.602v6.344c.003.18.018.36.045.539l1.142.154V46.7h-4.327Zm-3.25-2.504a3.25 3.25 0 0 0 1.54-.365c.429-.215.799-.53 1.08-.919v-2.12h-1.913a2.614 2.614 0 0 0-1.811.56 1.748 1.748 0 0 0-.616 1.343A1.389 1.389 0 0 0 82.9 43.8c.359.283.809.424 1.264.396Zm9.132.256 1.798-.385v-8.62l-1.99-.382v-2.26h5.483l.167 2.028a4.37 4.37 0 0 1 1.26-1.68 2.812 2.812 0 0 1 1.785-.603 4.617 4.617 0 0 1 1.169.154l-.398 3.416-1.54-.04a2.629 2.629 0 0 0-1.36.321c-.36.214-.647.532-.823.911v6.755l1.798.385V46.7h-7.349V44.45ZM109.93 29.4v3.403h2.441v2.633h-2.441v7.077c-.039.414.08.828.335 1.157a1.186 1.186 0 0 0 .899.347c.225.003.449-.007.673-.03.192-.02.409-.057.648-.109l.321 2.71a8.974 8.974 0 0 1-1.246.29 8.67 8.67 0 0 1-1.336.096 3.997 3.997 0 0 1-2.986-1.066 4.674 4.674 0 0 1-1.043-3.38v-7.09h-2.044v-2.634h2.044V29.4l3.735-.001Zm4.072 15.054 1.797-.385v-8.621l-1.991-.385V32.8h5.484l.167 1.99a5.075 5.075 0 0 1 1.708-1.656 4.434 4.434 0 0 1 2.273-.59 4.181 4.181 0 0 1 3.289 1.322 6.113 6.113 0 0 1 1.182 4.149v6.049l1.797.385v2.25h-7.165v-2.247l1.606-.385V38.03a2.813 2.813 0 0 0-.56-1.984 2.276 2.276 0 0 0-1.708-.584 2.897 2.897 0 0 0-1.336.303 2.748 2.748 0 0 0-.988.854v7.45l1.516.384V46.7h-7.071v-2.247Zm23.426 2.52a6.254 6.254 0 0 1-4.804-1.927 6.89 6.89 0 0 1-1.797-4.9v-.513a7.601 7.601 0 0 1 1.702-5.1 5.645 5.645 0 0 1 4.566-1.99 5.621 5.621 0 0 1 4.366 1.7 6.525 6.525 0 0 1 1.554 4.585v2.042h-8.296l-.025.077c.035.837.36 1.636.918 2.261a2.859 2.859 0 0 0 2.215.886 7.217 7.217 0 0 0 2.068-.247 9.508 9.508 0 0 0 1.797-.79l1.015 2.311a7.378 7.378 0 0 1-2.229 1.139 9.48 9.48 0 0 1-3.05.463v.003Zm-.335-11.533a1.958 1.958 0 0 0-1.643.796 4.14 4.14 0 0 0-.745 2.1l.039.065h4.598v-.335a3.014 3.014 0 0 0-.56-1.907 2.011 2.011 0 0 0-1.687-.722l-.002.003Zm7.98 9.016 1.798-.385v-8.624l-1.994-.383v-2.26h5.484l.167 2.028a4.363 4.363 0 0 1 1.26-1.68 2.812 2.812 0 0 1 1.785-.603 4.617 4.617 0 0 1 1.169.154l-.398 3.416-1.54-.04a2.63 2.63 0 0 0-1.361.321 2.08 2.08 0 0 0-.822.911v6.755l1.798.385V46.7h-7.349l.003-2.244ZM52.5 55.3H5.6a4.906 4.906 0 0 1-4.9-4.9V5.6C.7 2.898 2.898.7 5.6.7h46.9v54.6Z" fill="#fff"/><path d="M5.6 1.4a4.205 4.205 0 0 0-4.2 4.2v44.8c0 2.316 1.884 4.2 4.2 4.2h46.2V1.4H5.6Zm0-1.4h47.6v56H5.6A5.6 5.6 0 0 1 0 50.4V5.6A5.6 5.6 0 0 1 5.6 0Z" fill="#0C8543"/><rect x="1" y="1" width="166" height="54" rx="7" stroke="#fff" stroke-width="2"/></svg>